<svg width="20" height="20" viewBox="0 0 20 20" fill="none" xmlns="http://www.w3.org/2000/svg">
<path d="M2.49998 2.5L5.49095 5.49097M17.5 17.5L14.5093 14.5093M11.5624 15.6872C11.0564 15.7831 10.5342 15.8333 10.0004 15.8333C6.26898 15.8333 3.1104 13.3809 2.04852 9.99997C2.3376 9.07958 2.78207 8.22801 3.35117 7.47598M8.23221 8.23223C8.68462 7.77982 9.30962 7.5 9.99998 7.5C11.3807 7.5 12.5 8.61929 12.5 10C12.5 10.6904 12.2202 11.3154 11.7677 11.7678M8.23221 8.23223L11.7677 11.7678M8.23221 8.23223L5.49095 5.49097M11.7677 11.7678L5.49095 5.49097M11.7677 11.7678L14.5093 14.5093M5.49095 5.49097C6.7908 4.65295 8.33878 4.16667 10.0003 4.16667C13.7317 4.16667 16.8903 6.61909 17.9522 10C17.3631 11.8756 16.1287 13.4654 14.5093 14.5093" stroke="#101010" stroke-width="2" stroke-linecap="round" stroke-linejoin="round"/>
</svg>
